<mxfile host="app.diagrams.net" agent="Mozilla/5.0 (Windows NT 10.0; Win64; x64) AppleWebKit/537.36 (KHTML, like Gecko) Chrome/128.0.0.0 Safari/537.36" version="24.7.12">
  <diagram id="6a731a19-8d31-9384-78a2-239565b7b9f0" name="Page-1">
    <mxGraphModel dx="1615" dy="880" grid="1" gridSize="10" guides="1" tooltips="1" connect="1" arrows="1" fold="1" page="1" pageScale="1" pageWidth="1169" pageHeight="827" background="none" math="0" shadow="0">
      <root>
        <mxCell id="0" />
        <mxCell id="1" parent="0" />
        <mxCell id="EXYNZPNfQ6FAL5Mn9w3e-144" value="" style="rounded=0;whiteSpace=wrap;html=1;gradientColor=#C9C9C9;align=center;fontStyle=1;fontFamily=Times New Roman;" vertex="1" parent="1">
          <mxGeometry x="30" y="30" width="1120" height="780" as="geometry" />
        </mxCell>
        <mxCell id="EXYNZPNfQ6FAL5Mn9w3e-146" value="SIH PRJOECT WORK FLOW" style="text;html=1;align=center;verticalAlign=middle;whiteSpace=wrap;rounded=0;fontSize=16;fontFamily=Times New Roman;" vertex="1" parent="1">
          <mxGeometry x="519" y="50" width="130" height="30" as="geometry" />
        </mxCell>
        <mxCell id="EXYNZPNfQ6FAL5Mn9w3e-150" value="Structure&lt;div&gt;&lt;br&gt;&lt;/div&gt;&lt;div&gt;HTML5 &amp;amp; EJS&lt;/div&gt;" style="shape=cube;whiteSpace=wrap;html=1;boundedLbl=1;backgroundOutline=1;darkOpacity=0.05;darkOpacity2=0.1;fillColor=#fa6800;strokeColor=#C73500;fontColor=#000000;gradientColor=none;fillStyle=solid;align=center;fontFamily=Times New Roman;" vertex="1" parent="1">
          <mxGeometry x="90" y="120" width="120" height="80" as="geometry" />
        </mxCell>
        <mxCell id="EXYNZPNfQ6FAL5Mn9w3e-152" value="Styling&amp;nbsp;&lt;div&gt;&lt;br&gt;&lt;/div&gt;&lt;div&gt;Bootstrap/Tailwind CSS&lt;/div&gt;" style="shape=cube;whiteSpace=wrap;html=1;boundedLbl=1;backgroundOutline=1;darkOpacity=0.05;darkOpacity2=0.1;fillColor=#b1ddf0;strokeColor=#10739e;align=center;fontFamily=Times New Roman;" vertex="1" parent="1">
          <mxGeometry x="260" y="115" width="130" height="90" as="geometry" />
        </mxCell>
        <mxCell id="EXYNZPNfQ6FAL5Mn9w3e-153" value="" style="endArrow=classic;html=1;rounded=0;fontSize=12;startSize=8;endSize=8;curved=1;align=center;fontFamily=Times New Roman;" edge="1" parent="1" source="EXYNZPNfQ6FAL5Mn9w3e-150" target="EXYNZPNfQ6FAL5Mn9w3e-152">
          <mxGeometry width="50" height="50" relative="1" as="geometry">
            <mxPoint x="320" y="220" as="sourcePoint" />
            <mxPoint x="370" y="170" as="targetPoint" />
          </mxGeometry>
        </mxCell>
        <mxCell id="EXYNZPNfQ6FAL5Mn9w3e-157" value="" style="endArrow=classic;html=1;rounded=0;fontSize=12;startSize=8;endSize=8;curved=1;align=center;fontFamily=Times New Roman;" edge="1" parent="1" source="EXYNZPNfQ6FAL5Mn9w3e-152">
          <mxGeometry width="50" height="50" relative="1" as="geometry">
            <mxPoint x="320" y="220" as="sourcePoint" />
            <mxPoint x="440" y="160" as="targetPoint" />
          </mxGeometry>
        </mxCell>
        <mxCell id="EXYNZPNfQ6FAL5Mn9w3e-159" value="" style="rounded=0;whiteSpace=wrap;html=1;align=center;fontFamily=Times New Roman;" vertex="1" parent="1">
          <mxGeometry x="440" y="130" width="680" height="330" as="geometry" />
        </mxCell>
        <mxCell id="EXYNZPNfQ6FAL5Mn9w3e-164" value="&lt;span style=&quot;font-size: 18px;&quot;&gt;Server Scripting -&lt;/span&gt;&lt;span style=&quot;background-color: initial;&quot;&gt;Express JS&lt;/span&gt;" style="text;html=1;align=center;verticalAlign=middle;whiteSpace=wrap;rounded=0;fontSize=18;fontStyle=1;fontFamily=Times New Roman;" vertex="1" parent="1">
          <mxGeometry x="625" y="145" width="310" height="30" as="geometry" />
        </mxCell>
        <mxCell id="EXYNZPNfQ6FAL5Mn9w3e-165" value="User Auth&lt;div&gt;&lt;br&gt;&lt;/div&gt;&lt;div&gt;Passport.JS&lt;/div&gt;" style="shape=cube;whiteSpace=wrap;html=1;boundedLbl=1;backgroundOutline=1;darkOpacity=0.05;darkOpacity2=0.1;fillColor=#d5e8d4;gradientColor=#97d077;strokeColor=#82b366;align=center;fontFamily=Times New Roman;" vertex="1" parent="1">
          <mxGeometry x="470" y="190" width="120" height="80" as="geometry" />
        </mxCell>
        <mxCell id="EXYNZPNfQ6FAL5Mn9w3e-167" value="Database&lt;div&gt;&lt;br&gt;&lt;/div&gt;&lt;div&gt;PostgreSQL&lt;/div&gt;" style="shape=cube;whiteSpace=wrap;html=1;boundedLbl=1;backgroundOutline=1;darkOpacity=0.05;darkOpacity2=0.1;fillColor=#dae8fc;gradientColor=#7ea6e0;strokeColor=#6c8ebf;align=center;fontFamily=Times New Roman;" vertex="1" parent="1">
          <mxGeometry x="680" y="190" width="120" height="80" as="geometry" />
        </mxCell>
        <mxCell id="EXYNZPNfQ6FAL5Mn9w3e-168" value="" style="endArrow=classic;html=1;rounded=0;fontSize=12;startSize=8;endSize=8;curved=1;entryX=0.053;entryY=0.566;entryDx=0;entryDy=0;entryPerimeter=0;exitX=0;exitY=0;exitDx=119.99999999999999;exitDy=50;exitPerimeter=0;align=center;fontFamily=Times New Roman;" edge="1" parent="1" source="EXYNZPNfQ6FAL5Mn9w3e-165" target="EXYNZPNfQ6FAL5Mn9w3e-167">
          <mxGeometry width="50" height="50" relative="1" as="geometry">
            <mxPoint x="490" y="320" as="sourcePoint" />
            <mxPoint x="540" y="270" as="targetPoint" />
          </mxGeometry>
        </mxCell>
        <mxCell id="EXYNZPNfQ6FAL5Mn9w3e-170" value="" style="shape=cube;whiteSpace=wrap;html=1;boundedLbl=1;backgroundOutline=1;darkOpacity=0.05;darkOpacity2=0.1;align=center;fontFamily=Times New Roman;fillColor=#e1d5e7;strokeColor=#9673a6;fillStyle=hatch;fontColor=#003366;" vertex="1" parent="1">
          <mxGeometry x="840" y="180" width="250" height="180" as="geometry" />
        </mxCell>
        <mxCell id="EXYNZPNfQ6FAL5Mn9w3e-171" value="" style="endArrow=classic;html=1;rounded=0;fontSize=12;startSize=8;endSize=8;curved=1;exitX=0;exitY=0;exitDx=119.99999999999999;exitDy=50;exitPerimeter=0;entryX=0;entryY=0;entryDx=0;entryDy=80;entryPerimeter=0;align=center;fontFamily=Times New Roman;" edge="1" parent="1" source="EXYNZPNfQ6FAL5Mn9w3e-167" target="EXYNZPNfQ6FAL5Mn9w3e-170">
          <mxGeometry width="50" height="50" relative="1" as="geometry">
            <mxPoint x="490" y="320" as="sourcePoint" />
            <mxPoint x="870" y="230" as="targetPoint" />
          </mxGeometry>
        </mxCell>
        <mxCell id="EXYNZPNfQ6FAL5Mn9w3e-172" value="&lt;span style=&quot;font-size: 12px;&quot;&gt;Deployment&lt;/span&gt;&lt;div style=&quot;font-size: 12px;&quot;&gt;&lt;br&gt;&lt;/div&gt;&lt;div style=&quot;font-size: 12px;&quot;&gt;Any Deployment Service&lt;/div&gt;" style="text;html=1;align=center;verticalAlign=middle;whiteSpace=wrap;rounded=0;fontSize=16;fontFamily=Times New Roman;fontColor=#007FFF;" vertex="1" parent="1">
          <mxGeometry x="862.5" y="215" width="205" height="30" as="geometry" />
        </mxCell>
        <mxCell id="EXYNZPNfQ6FAL5Mn9w3e-176" value="Vercel" style="text;strokeColor=none;fillColor=none;align=center;verticalAlign=middle;spacingLeft=4;spacingRight=4;overflow=hidden;points=[[0,0.5],[1,0.5]];portConstraint=eastwest;rotatable=0;whiteSpace=wrap;html=1;fontFamily=Times New Roman;fontColor=#007FFF;" vertex="1" parent="1">
          <mxGeometry x="925" y="270" width="80" height="30" as="geometry" />
        </mxCell>
        <mxCell id="EXYNZPNfQ6FAL5Mn9w3e-177" value="Render" style="text;strokeColor=none;fillColor=none;align=center;verticalAlign=middle;spacingLeft=4;spacingRight=4;overflow=hidden;points=[[0,0.5],[1,0.5]];portConstraint=eastwest;rotatable=0;whiteSpace=wrap;html=1;fontFamily=Times New Roman;fontColor=#007FFF;" vertex="1" parent="1">
          <mxGeometry x="925" y="290" width="80" height="30" as="geometry" />
        </mxCell>
        <mxCell id="EXYNZPNfQ6FAL5Mn9w3e-178" value="Heroku" style="text;strokeColor=none;fillColor=none;align=center;verticalAlign=middle;spacingLeft=4;spacingRight=4;overflow=hidden;points=[[0,0.5],[1,0.5]];portConstraint=eastwest;rotatable=0;whiteSpace=wrap;html=1;fontFamily=Times New Roman;fontColor=#007FFF;" vertex="1" parent="1">
          <mxGeometry x="925" y="310" width="80" height="30" as="geometry" />
        </mxCell>
        <mxCell id="EXYNZPNfQ6FAL5Mn9w3e-179" value="" style="endArrow=classic;html=1;rounded=0;fontSize=12;startSize=8;endSize=8;curved=1;exitX=0.5;exitY=1;exitDx=0;exitDy=0;fontFamily=Times New Roman;" edge="1" parent="1" source="EXYNZPNfQ6FAL5Mn9w3e-159" target="EXYNZPNfQ6FAL5Mn9w3e-180">
          <mxGeometry width="50" height="50" relative="1" as="geometry">
            <mxPoint x="660" y="380" as="sourcePoint" />
            <mxPoint x="710" y="330" as="targetPoint" />
          </mxGeometry>
        </mxCell>
        <mxCell id="EXYNZPNfQ6FAL5Mn9w3e-180" value="" style="shape=cube;whiteSpace=wrap;html=1;boundedLbl=1;backgroundOutline=1;darkOpacity=0.05;darkOpacity2=0.1;fontFamily=Times New Roman;" vertex="1" parent="1">
          <mxGeometry x="450" y="530" width="250" height="180" as="geometry" />
        </mxCell>
        <mxCell id="EXYNZPNfQ6FAL5Mn9w3e-183" value="Testing &amp;amp; Rectification" style="text;html=1;align=center;verticalAlign=middle;whiteSpace=wrap;rounded=0;fontSize=16;fontFamily=Times New Roman;" vertex="1" parent="1">
          <mxGeometry x="475" y="620" width="230" height="30" as="geometry" />
        </mxCell>
      </root>
    </mxGraphModel>
  </diagram>
</mxfile>
